<svg width="211" height="61" viewBox="0 0 211 61" fill="none" xmlns="http://www.w3.org/2000/svg">
<path d="M209.82 53.9231C209.82 57.1714 207.134 59.8026 203.811 59.8026H7.188C3.8673 59.8026 1.17188 57.1714 1.17188 53.9231V7.03653C1.17188 3.78979 3.8673 1.14941 7.188 1.14941H203.81C207.134 1.14941 209.818 3.78979 209.818 7.03653L209.82 53.9231Z" fill="black"/>
<path d="M203.178 1.21982C206.796 1.21982 209.74 4.09034 209.74 7.61801V53.333C209.74 56.8607 206.796 59.7312 203.178 59.7312H7.81453C4.1964 59.7312 1.25228 56.8607 1.25228 53.333V7.61801C1.25228 4.09034 4.1964 1.21982 7.81453 1.21982H203.178ZM203.178 -0.00114758H7.81453C3.51849 -0.00114758 0 3.42938 0 7.61801V53.333C0 57.5216 3.51849 60.9521 7.81453 60.9521H203.178C207.474 60.9521 210.992 57.5216 210.992 53.333V7.61801C210.992 3.42938 207.474 -0.00114758 203.178 -0.00114758Z" fill="#A6A6A6"/>
<path d="M47.0869 30.1465C47.0415 25.2352 51.2114 22.8458 51.402 22.7346C49.0405 19.3776 45.3802 18.9189 44.0939 18.8823C41.0197 18.5669 38.0376 20.6759 36.4716 20.6759C34.8743 20.6759 32.4628 18.9128 29.8636 18.9646C26.519 19.0149 23.3901 20.9029 21.674 23.8348C18.1325 29.8128 20.7738 38.5977 24.1669 43.4297C25.8642 45.7962 27.8475 48.4386 30.4435 48.3456C32.9832 48.2435 33.9319 46.7669 36.9967 46.7669C40.0335 46.7669 40.9243 48.3456 43.5719 48.2862C46.2976 48.2435 48.0137 45.909 49.6516 43.5212C51.613 40.8087 52.4007 38.1375 52.432 38.0003C52.3679 37.979 47.1384 36.0331 47.0869 30.1465Z" fill="white"/>
<path d="M42.0856 15.7036C43.4515 14.0381 44.3862 11.7721 44.1267 9.47266C42.1496 9.55799 39.6771 10.806 38.2533 12.435C36.9936 13.8704 35.8683 16.2232 36.159 18.4358C38.3799 18.5974 40.6602 17.3433 42.0856 15.7036Z" fill="white"/>
<path d="M83.8424 48.0057H80.2931L78.3488 42.0491H71.5908L69.7388 48.0057H66.2832L72.9787 27.7266H77.1141L83.8424 48.0057ZM77.7627 39.55L76.0045 34.2547C75.8185 33.7137 75.47 32.4398 74.9558 30.4344H74.8932C74.6885 31.2969 74.3587 32.5708 73.9055 34.2547L72.1785 39.55H77.7627Z" fill="white"/>
<path d="M101.06 40.5147C101.06 43.0016 100.371 44.9674 98.9923 46.4104C97.7576 47.695 96.2244 48.3366 94.3942 48.3366C92.4187 48.3366 90.9996 47.6447 90.1353 46.2611H90.0728V53.9641H86.7407V38.197C86.7407 36.6335 86.6985 35.0289 86.6172 33.3832H89.5476L89.7336 35.701H89.7961C90.9074 33.9546 92.5937 33.083 94.8568 33.083C96.626 33.083 98.103 33.7642 99.2845 35.128C100.469 36.4933 101.06 38.2884 101.06 40.5147ZM97.6654 40.6336C97.6654 39.2103 97.3372 38.037 96.6776 37.1135C95.9571 36.1505 94.9897 35.669 93.7769 35.669C92.9548 35.669 92.2077 35.9371 91.5403 36.4659C90.8714 36.9993 90.4338 37.6956 90.2291 38.5581C90.1259 38.9604 90.0743 39.2896 90.0743 39.5486V41.9868C90.0743 43.0504 90.4088 43.9479 91.0777 44.6809C91.7466 45.4139 92.6156 45.7796 93.6846 45.7796C94.9397 45.7796 95.9165 45.3072 96.6151 44.3655C97.3153 43.4222 97.6654 42.1788 97.6654 40.6336Z" fill="white"/>
<path d="M118.31 40.5147C118.31 43.0016 117.621 44.9674 116.241 46.4104C115.008 47.695 113.475 48.3366 111.645 48.3366C109.669 48.3366 108.25 47.6447 107.387 46.2611H107.325V53.9641H103.993V38.197C103.993 36.6335 103.95 35.0289 103.869 33.3832H106.8L106.986 35.701H107.048C108.158 33.9546 109.844 33.083 112.109 33.083C113.876 33.083 115.353 33.7642 116.538 35.128C117.718 36.4933 118.31 38.2884 118.31 40.5147ZM114.916 40.6336C114.916 39.2103 114.586 38.037 113.926 37.1135C113.206 36.1505 112.242 35.669 111.027 35.669C110.204 35.669 109.458 35.9371 108.789 36.4659C108.12 36.9993 107.684 37.6956 107.479 38.5581C107.378 38.9604 107.325 39.2896 107.325 39.5486V41.9868C107.325 43.0504 107.659 43.9479 108.325 44.6809C108.994 45.4123 109.863 45.7796 110.935 45.7796C112.19 45.7796 113.167 45.3072 113.865 44.3655C114.566 43.4222 114.916 42.1788 114.916 40.6336Z" fill="white"/>
<path d="M137.597 42.3191C137.597 44.044 136.982 45.4475 135.749 46.5309C134.394 47.7149 132.508 48.3062 130.084 48.3062C127.846 48.3062 126.052 47.8856 124.693 47.0429L125.465 44.3351C126.928 45.1976 128.533 45.6303 130.282 45.6303C131.537 45.6303 132.514 45.353 133.216 44.8014C133.915 44.2498 134.263 43.5092 134.263 42.5857C134.263 41.7629 133.975 41.0695 133.399 40.5072C132.825 39.9449 131.867 39.4223 130.529 38.9392C126.888 37.615 125.068 35.6751 125.068 33.1243C125.068 31.4572 125.706 30.0903 126.983 29.0267C128.255 27.9615 129.953 27.4297 132.075 27.4297C133.968 27.4297 135.54 27.7512 136.795 28.3927L135.962 31.0412C134.79 30.4194 133.464 30.1086 131.981 30.1086C130.809 30.1086 129.893 30.3905 129.237 30.9513C128.682 31.4526 128.404 32.0637 128.404 32.7875C128.404 33.589 128.721 34.2519 129.359 34.773C129.913 35.2546 130.922 35.7757 132.384 36.338C134.174 37.0405 135.488 37.8618 136.334 38.8036C137.176 39.7423 137.597 40.9171 137.597 42.3191Z" fill="white"/>
<path d="M148.614 35.8209H144.941V42.9204C144.941 44.7262 145.588 45.6283 146.886 45.6283C147.481 45.6283 147.975 45.578 148.366 45.4774L148.458 47.9445C147.801 48.1837 146.937 48.3041 145.866 48.3041C144.551 48.3041 143.522 47.9125 142.78 47.1308C142.041 46.3475 141.669 45.034 141.669 43.1886V35.8178H139.48V33.3797H141.669V30.7023L144.941 29.7393V33.3797H148.614V35.8209Z" fill="white"/>
<path d="M165.184 40.5746C165.184 42.8223 164.524 44.6676 163.208 46.1107C161.828 47.5964 159.997 48.337 157.713 48.337C155.513 48.337 153.761 47.6254 152.454 46.2021C151.147 44.7788 150.494 42.9823 150.494 40.8169C150.494 38.5509 151.166 36.6949 152.515 35.2519C153.861 33.8073 155.677 33.085 157.96 33.085C160.161 33.085 161.931 33.7966 163.268 35.2214C164.546 36.6035 165.184 38.3879 165.184 40.5746ZM161.727 40.6797C161.727 39.3311 161.431 38.1746 160.833 37.21C160.134 36.0427 159.135 35.4606 157.841 35.4606C156.502 35.4606 155.484 36.0442 154.786 37.21C154.187 38.1761 153.892 39.351 153.892 40.7407C153.892 42.0893 154.187 43.2459 154.786 44.2089C155.506 45.3762 156.513 45.9583 157.812 45.9583C159.084 45.9583 160.083 45.364 160.803 44.1785C161.417 43.1956 161.727 42.0268 161.727 40.6797Z" fill="white"/>
<path d="M176.016 36.2404C175.686 36.181 175.335 36.1505 174.966 36.1505C173.794 36.1505 172.887 36.5817 172.25 37.4457C171.695 38.2077 171.417 39.1707 171.417 40.3334V48.0059H168.086L168.117 37.9882C168.117 36.3029 168.075 34.7684 167.992 33.3847H170.895L171.016 36.1825H171.109C171.46 35.2209 172.015 34.4468 172.775 33.8663C173.517 33.3436 174.319 33.083 175.183 33.083C175.491 33.083 175.769 33.1043 176.016 33.1424V36.2404Z" fill="white"/>
<path d="M190.918 40.0028C190.918 40.5849 190.879 41.0756 190.796 41.4764H180.8C180.839 42.921 181.322 44.0257 182.25 44.7876C183.093 45.4688 184.182 45.8101 185.52 45.8101C187 45.8101 188.35 45.58 189.565 45.1183L190.087 47.3736C188.668 47.977 186.992 48.2772 185.059 48.2772C182.733 48.2772 180.908 47.6098 179.579 46.2764C178.254 44.9431 177.59 43.1526 177.59 40.9064C177.59 38.7015 178.207 36.8652 179.443 35.4008C180.738 33.8374 182.486 33.0557 184.687 33.0557C186.848 33.0557 188.485 33.8374 189.596 35.4008C190.476 36.6428 190.918 38.1788 190.918 40.0028ZM187.741 39.1601C187.763 38.1971 187.546 37.3651 187.094 36.6626C186.517 35.7589 185.631 35.3079 184.438 35.3079C183.349 35.3079 182.463 35.7483 181.786 36.6321C181.231 37.3346 180.902 38.1773 180.8 39.1586H187.741V39.1601Z" fill="white"/>
<path d="M76.6588 15.2505C76.6588 17.0441 76.1071 18.3942 75.0053 19.3009C73.9847 20.1375 72.5343 20.5565 70.6557 20.5565C69.7242 20.5565 68.9271 20.5169 68.2598 20.4377V10.6379C69.1303 10.5008 70.068 10.4307 71.0808 10.4307C72.8703 10.4307 74.2191 10.8101 75.1287 11.569C76.1478 12.4269 76.6588 13.6536 76.6588 15.2505ZM74.9318 15.2947C74.9318 14.1321 74.6161 13.2406 73.9847 12.6189C73.3533 11.9987 72.4312 11.6878 71.2168 11.6878C70.701 11.6878 70.2618 11.7213 69.8977 11.7914V19.2415C70.0993 19.2719 70.4682 19.2857 71.0042 19.2857C72.2577 19.2857 73.2251 18.9458 73.9066 18.2662C74.588 17.5866 74.9318 16.5961 74.9318 15.2947Z" fill="white"/>
<path d="M85.8175 16.8172C85.8175 17.922 85.494 18.8271 84.8469 19.5372C84.1686 20.2672 83.27 20.6314 82.1478 20.6314C81.0663 20.6314 80.2051 20.2824 79.5628 19.5814C78.922 18.882 78.6016 17.9997 78.6016 16.9361C78.6016 15.8237 78.9313 14.9109 79.594 14.2023C80.2567 13.4937 81.1475 13.1387 82.2697 13.1387C83.3512 13.1387 84.2202 13.4876 84.8782 14.1871C85.5034 14.8667 85.8175 15.7444 85.8175 16.8172ZM84.1186 16.869C84.1186 16.2061 83.9717 15.6378 83.6794 15.1638C83.3356 14.5909 82.8464 14.3044 82.2103 14.3044C81.5523 14.3044 81.0522 14.5909 80.7084 15.1638C80.4145 15.6378 80.2692 16.2153 80.2692 16.898C80.2692 17.5608 80.4161 18.1292 80.7084 18.6031C81.0631 19.1761 81.557 19.4626 82.1947 19.4626C82.8198 19.4626 83.3106 19.1715 83.6638 18.5879C83.967 18.1048 84.1186 17.5319 84.1186 16.869Z" fill="white"/>
<path d="M98.0946 13.2852L95.7893 20.4685H94.2889L93.334 17.3492C93.0917 16.5705 92.8948 15.7964 92.7416 15.0284H92.7119C92.5697 15.8178 92.3728 16.5903 92.1196 17.3492L91.1052 20.4685H89.5877L87.4199 13.2852H89.1032L89.9362 16.7001C90.1378 17.5077 90.3035 18.2772 90.4363 19.0056H90.466C90.5879 18.4052 90.7895 17.6403 91.074 16.7153L92.1196 13.2867H93.4543L94.4561 16.6422C94.6984 17.4605 94.8953 18.2483 95.0469 19.0071H95.0922C95.2032 18.2681 95.3704 17.4803 95.5923 16.6422L96.4863 13.2867H98.0946V13.2852Z" fill="white"/>
<path d="M106.587 20.468H104.949V16.3536C104.949 15.0858 104.455 14.4519 103.464 14.4519C102.978 14.4519 102.586 14.6256 102.281 14.9746C101.979 15.3235 101.826 15.735 101.826 16.2058V20.4665H100.188V15.3373C100.188 14.7064 100.168 14.0222 100.129 13.2816H101.568L101.645 14.4047H101.69C101.881 14.0557 102.165 13.7677 102.539 13.5376C102.983 13.2694 103.48 13.1338 104.024 13.1338C104.711 13.1338 105.283 13.3502 105.738 13.7845C106.304 14.3163 106.587 15.1102 106.587 16.1647V20.468Z" fill="white"/>
<path d="M111.103 20.4687H109.467V9.98926H111.103V20.4687Z" fill="white"/>
<path d="M120.743 16.8172C120.743 17.922 120.42 18.8271 119.773 19.5372C119.094 20.2672 118.194 20.6314 117.074 20.6314C115.99 20.6314 115.129 20.2824 114.489 19.5814C113.848 18.882 113.527 17.9997 113.527 16.9361C113.527 15.8237 113.857 14.9109 114.52 14.2023C115.182 13.4937 116.073 13.1387 117.194 13.1387C118.277 13.1387 119.144 13.4876 119.804 14.1871C120.429 14.8667 120.743 15.7444 120.743 16.8172ZM119.043 16.869C119.043 16.2061 118.896 15.6378 118.604 15.1638C118.261 14.5909 117.771 14.3044 117.136 14.3044C116.477 14.3044 115.976 14.5909 115.634 15.1638C115.34 15.6378 115.195 16.2153 115.195 16.898C115.195 17.5608 115.342 18.1292 115.634 18.6031C115.989 19.1761 116.483 19.4626 117.12 19.4626C117.746 19.4626 118.235 19.1715 118.588 18.5879C118.893 18.1048 119.043 17.5319 119.043 16.869Z" fill="white"/>
<path d="M128.673 20.4683H127.203L127.081 19.6409H127.036C126.532 20.3007 125.815 20.6314 124.883 20.6314C124.188 20.6314 123.625 20.4134 123.202 19.9807C122.817 19.5875 122.625 19.0984 122.625 18.5178C122.625 17.6401 123 16.9711 123.755 16.5079C124.508 16.0446 125.568 15.8176 126.932 15.8282V15.6941C126.932 14.7478 126.423 14.2755 125.402 14.2755C124.676 14.2755 124.035 14.4537 123.481 14.8073L123.149 13.7589C123.833 13.3459 124.679 13.1387 125.676 13.1387C127.601 13.1387 128.567 14.1292 128.567 16.1101V18.7555C128.567 19.4732 128.603 20.0447 128.673 20.4683ZM126.973 17.9997V16.8919C125.166 16.8614 124.263 17.3444 124.263 18.3395C124.263 18.7144 124.366 18.9948 124.577 19.1822C124.788 19.3696 125.057 19.4626 125.377 19.4626C125.737 19.4626 126.073 19.3513 126.379 19.1304C126.687 18.9079 126.876 18.626 126.946 18.2801C126.964 18.2024 126.973 18.1079 126.973 17.9997Z" fill="white"/>
<path d="M137.978 20.4687H136.525L136.448 19.3151H136.403C135.939 20.1928 135.148 20.6317 134.037 20.6317C133.149 20.6317 132.41 20.2919 131.824 19.6123C131.238 18.9326 130.945 18.0503 130.945 16.9669C130.945 15.8042 131.263 14.8625 131.9 14.1432C132.518 13.4727 133.274 13.1375 134.174 13.1375C135.164 13.1375 135.856 13.4621 136.25 14.1127H136.281V9.98926H137.921V18.5334C137.921 19.2328 137.939 19.8774 137.978 20.4687ZM136.281 17.4393V16.2415C136.281 16.0343 136.265 15.8667 136.236 15.7387C136.144 15.3547 135.945 15.0316 135.643 14.771C135.339 14.5105 134.971 14.3794 134.548 14.3794C133.937 14.3794 133.458 14.6156 133.107 15.0895C132.758 15.5634 132.582 16.1684 132.582 16.9075C132.582 17.6176 132.749 18.1936 133.085 18.637C133.44 19.1094 133.918 19.3456 134.517 19.3456C135.054 19.3456 135.484 19.149 135.811 18.7543C136.126 18.3901 136.281 17.9513 136.281 17.4393Z" fill="white"/>
<path d="M151.987 16.8172C151.987 17.922 151.664 18.8271 151.017 19.5372C150.339 20.2672 149.441 20.6314 148.318 20.6314C147.238 20.6314 146.377 20.2824 145.733 19.5814C145.092 18.882 144.771 17.9997 144.771 16.9361C144.771 15.8237 145.101 14.9109 145.764 14.2023C146.427 13.4937 147.317 13.1387 148.441 13.1387C149.521 13.1387 150.392 13.4876 151.048 14.1871C151.673 14.8667 151.987 15.7444 151.987 16.8172ZM150.29 16.869C150.29 16.2061 150.143 15.6378 149.851 15.1638C149.506 14.5909 149.018 14.3044 148.38 14.3044C147.724 14.3044 147.224 14.5909 146.878 15.1638C146.584 15.6378 146.439 16.2153 146.439 16.898C146.439 17.5608 146.586 18.1292 146.878 18.6031C147.233 19.1761 147.727 19.4626 148.365 19.4626C148.99 19.4626 149.482 19.1715 149.835 18.5879C150.137 18.1048 150.29 17.5319 150.29 16.869Z" fill="white"/>
<path d="M160.796 20.468H159.16V16.3536C159.16 15.0858 158.666 14.4519 157.674 14.4519C157.187 14.4519 156.795 14.6256 156.492 14.9746C156.189 15.3235 156.037 15.735 156.037 16.2058V20.4665H154.398V15.3373C154.398 14.7064 154.379 14.0222 154.34 13.2816H155.778L155.854 14.4047H155.9C156.092 14.0557 156.376 13.7677 156.748 13.5376C157.194 13.2694 157.689 13.1338 158.235 13.1338C158.921 13.1338 159.493 13.3502 159.948 13.7845C160.515 14.3163 160.796 15.1102 160.796 16.1647V20.468Z" fill="white"/>
<path d="M171.819 14.4813H170.016V17.9709C170.016 18.8577 170.336 19.3012 170.97 19.3012C171.264 19.3012 171.508 19.2768 171.7 19.2265L171.743 20.4379C171.419 20.5568 170.994 20.6162 170.47 20.6162C169.823 20.6162 169.32 20.4242 168.956 20.0402C168.59 19.6562 168.409 19.0101 168.409 18.1034V14.4813H167.332V13.2851H168.409V11.9685L170.014 11.4961V13.2835H171.818V14.4813H171.819Z" fill="white"/>
<path d="M180.488 20.4687H178.849V16.3848C178.849 15.0971 178.355 14.4526 177.366 14.4526C176.606 14.4526 176.087 14.8259 175.803 15.5726C175.754 15.7295 175.726 15.9215 175.726 16.1471V20.4671H174.09V9.98926H175.726V14.3185H175.757C176.273 13.5306 177.012 13.1375 177.971 13.1375C178.649 13.1375 179.21 13.3539 179.655 13.7882C180.21 14.3291 180.488 15.1337 180.488 16.1974V20.4687Z" fill="white"/>
<path d="M189.433 16.5369C189.433 16.8233 189.411 17.0641 189.372 17.2607H184.46C184.482 17.9708 184.716 18.5117 185.171 18.8866C185.587 19.2219 186.123 19.3895 186.779 19.3895C187.506 19.3895 188.169 19.2767 188.766 19.0497L189.022 20.159C188.323 20.4546 187.501 20.6024 186.549 20.6024C185.408 20.6024 184.51 20.2748 183.86 19.6196C183.206 18.9643 182.883 18.0851 182.883 16.9818C182.883 15.8984 183.184 14.9963 183.792 14.277C184.427 13.509 185.285 13.125 186.368 13.125C187.428 13.125 188.233 13.509 188.777 14.277C189.216 14.8865 189.433 15.6408 189.433 16.5369ZM187.87 16.1239C187.883 15.65 187.775 15.2416 187.553 14.8972C187.268 14.4538 186.835 14.2313 186.249 14.2313C185.715 14.2313 185.279 14.4477 184.946 14.882C184.674 15.2279 184.513 15.6408 184.46 16.1239H187.87Z" fill="white"/>
</svg>
